<?xml version="1.0" encoding="UTF-8"?><svg xmlns="http://www.w3.org/2000/svg" xmlns:xlink="http://www.w3.org/1999/xlink" height="480.1" preserveAspectRatio="xMidYMid meet" version="1.0" viewBox="12.0 12.0 488.0 480.1" width="488.0" zoomAndPan="magnify"><g id="change1_1"><path d="M144,400c-3.3,0-6-2.7-6-6l0-2c0-2.2-1.8-4-4-4c0,0,0,0,0,0c-2.2,0-4,1.8-4,4l0,2c0,6.3,4.2,11.7,10,13.4v4.6 c0,2.2,1.8,4,4,4s4-1.8,4-4v-4.6c5.8-1.7,10-7.1,10-13.4c0-5.3-3.2-10-8.1-11.9l-8.9-3.5c-1.9-0.7-3.1-2.5-3.1-4.5c0-3.3,2.7-6,6-6 s6,2.7,6,6v0.6c0,2.2,1.8,4,4,4s4-1.8,4-4V374c0-6.3-4.2-11.7-10-13.4V356c0-2.2-1.8-4-4-4s-4,1.8-4,4v4.6c-5.8,1.7-10,7.1-10,13.4 c0,5.3,3.2,10,8.1,11.9l8.9,3.5c1.9,0.7,3.1,2.5,3.1,4.5C150,397.3,147.3,400,144,400z"/></g><g id="change1_2"><path d="M72,388c-24.3,0-44,19.7-44,44s19.7,44,44,44s44-19.7,44-44S96.3,388,72,388z M72,468c-19.9,0-36-16.1-36-36s16.1-36,36-36 s36,16.1,36,36S91.9,468,72,468z"/></g><g id="change1_3"><path d="M76,408.6V404c0-2.2-1.8-4-4-4s-4,1.8-4,4v4.6c-5.8,1.7-10,7.1-10,13.4c0,5.3,3.2,10,8.1,11.9l8.9,3.5 c1.9,0.7,3.1,2.5,3.1,4.5c0,3.3-2.7,6-6,6c-3.3,0-6-2.7-6-6l0-2c0-2.2-1.8-4-4-4c0,0,0,0,0,0c-2.2,0-4,1.8-4,4l0,2 c0,6.3,4.2,11.7,10,13.4v4.6c0,2.2,1.8,4,4,4s4-1.8,4-4v-4.6c5.8-1.7,10-7.1,10-13.4c0-5.3-3.2-10-8.1-11.9l-8.9-3.5 c-1.9-0.7-3.1-2.5-3.1-4.5c0-3.3,2.7-6,6-6s6,2.7,6,6v0.6c0,2.2,1.8,4,4,4s4-1.8,4-4V422C86,415.7,81.8,410.3,76,408.6z"/></g><g id="change1_4"><path d="M88,340c2.2,0,4-1.8,4-4V20h328v356c0,2.2,1.8,4,4,4s4-1.8,4-4V16c0-2.2-1.8-4-4-4H88c-2.2,0-4,1.8-4,4v320 C84,338.2,85.8,340,88,340z"/></g><g id="change1_5"><path d="M412,32c0-2.2-1.8-4-4-4H104c-2.2,0-4,1.8-4,4v64c0,2.2,1.8,4,4,4h304c2.2,0,4-1.8,4-4V32z M404,92H108V36h296V92z"/></g><g id="change1_6"><path d="M312,84h80c2.2,0,4-1.8,4-4V48c0-2.2-1.8-4-4-4h-80c-2.2,0-4,1.8-4,4v32C308,82.2,309.8,84,312,84z M316,52h72v24h-72V52z"/></g><g id="change1_7"><path d="M120,52h32c2.2,0,4-1.8,4-4s-1.8-4-4-4h-32c-2.2,0-4,1.8-4,4S117.8,52,120,52z"/></g><g id="change1_8"><path d="M120,68h48c2.2,0,4-1.8,4-4s-1.8-4-4-4h-48c-2.2,0-4,1.8-4,4S117.8,68,120,68z"/></g><g id="change1_9"><path d="M120,84h64c2.2,0,4-1.8,4-4s-1.8-4-4-4h-64c-2.2,0-4,1.8-4,4S117.8,84,120,84z"/></g><g id="change1_10"><path d="M412,120c0-2.2-1.8-4-4-4H104c-2.2,0-4,1.8-4,4v192c0,2.2,1.8,4,4,4h304c2.2,0,4-1.8,4-4V120z M156,244v-48h120v48H156z M276,252v56H156v-56H276z M404,140v48H284v-48H404z M276,188H156v-48h120V188z M148,188h-40v-48h40V188z M108,196h40v48h-40V196z M284,196h120v48H284V196z M404,124v8H108v-8H404z M108,252h40v56h-40V252z M284,308v-56h120v56H284z"/></g><g id="change1_11"><path d="M408,324H184c-2.2,0-4,1.8-4,4s1.8,4,4,4h224c2.2,0,4-1.8,4-4S410.2,324,408,324z"/></g><g id="change1_12"><path d="M408,340H199c-2.2,0-4,1.8-4,4s1.8,4,4,4h209c2.2,0,4-1.8,4-4S410.2,340,408,340z"/></g><g id="change1_13"><path d="M408,356H210.9c-2.2,0-4,1.8-4,4s1.8,4,4,4H408c2.2,0,4-1.8,4-4S410.2,356,408,356z"/></g><g id="change1_14"><path d="M240,372c-2.2,0-4,1.8-4,4s1.8,4,4,4h64c2.2,0,4-1.8,4-4s-1.8-4-4-4H240z"/></g><g id="change1_15"><path d="M408,372h-56c-2.2,0-4,1.8-4,4s1.8,4,4,4h56c2.2,0,4-1.8,4-4S410.2,372,408,372z"/></g><g id="change1_16"><path d="M196,52h8v28c0,2.2,1.8,4,4,4s4-1.8,4-4V52h8c2.2,0,4-1.8,4-4s-1.8-4-4-4h-24c-2.2,0-4,1.8-4,4S193.8,52,196,52z"/></g><g id="change1_17"><path d="M230.6,83.7c2.1,0.8,4.4-0.3,5.1-2.3l2-5.4h12.5l2,5.4c0.6,1.6,2.1,2.6,3.7,2.6c0.5,0,0.9-0.1,1.4-0.3 c2.1-0.8,3.1-3.1,2.3-5.1l-12-32c-0.6-1.6-2.1-2.6-3.7-2.6s-3.2,1-3.7,2.6l-12,32C227.5,80.7,228.5,83,230.6,83.7z M244,59.4 l3.2,8.6h-6.5L244,59.4z"/></g><g id="change1_18"><path d="M269.6,83.2c0.7,0.5,1.6,0.8,2.4,0.8c1.2,0,2.4-0.6,3.2-1.6l8.8-11.7l8.8,11.7c0.8,1,2,1.6,3.2,1.6c0.8,0,1.7-0.3,2.4-0.8 c1.8-1.3,2.1-3.8,0.8-5.6L289,64l10.2-13.6c1.3-1.8,1-4.3-0.8-5.6c-1.8-1.3-4.3-1-5.6,0.8L284,57.3l-8.8-11.7 c-1.3-1.8-3.8-2.1-5.6-0.8c-1.8,1.3-2.1,3.8-0.8,5.6L279,64l-10.2,13.6C267.5,79.4,267.8,81.9,269.6,83.2z"/></g><g id="change1_19"><path d="M496,388H340v-12c0-2.2-1.8-4-4-4h-16c-2.2,0-4,1.8-4,4v12h-88v-12c0-2.2-1.8-4-4-4h-16c-2.2,0-4,1.8-4,4v8v8v92h-10.1 c1.4-2.4,2.1-5.1,2.1-8c0-4.8-2.1-9.1-5.4-12c0.3-0.2,0.5-0.4,0.8-0.7c3-3,4.7-7,4.7-11.3c0-8.8-7.2-16-16-16h-6.1 c18-10.4,30.1-29.8,30.1-52c0-33.1-26.9-60-60-60c-15,0-29.3,5.6-40.4,15.7c-9.8,9-16.4,20.8-18.7,33.8c-4.2-0.9-8.5-1.4-13-1.4 c-33.1,0-60,26.9-60,60s26.9,60,60,60c4.6,0,9-0.5,13.2-1.5c0.9,0.4,1.8,0.7,2.8,1v0.5h4h404c2.2,0,4-1.8,4-4v-96 C500,389.8,498.2,388,496,388z M492,452h-80v-8h80V452z M492,420h-80v-8h80V420z M412,460h80v8h-80V460z M412,436v-8h80v8H412z M492,404h-80v-8h80V404z M404,436h-8v-40h8V436z M388,444v40h-72v-40H388z M388,396v40h-72v-40H388z M324,380h8v8h-8V380z M308,396 v40h-8v-40H308z M292,452h-80v-8h80V452z M212,436v-8h80v8H212z M292,420h-80v-8h80V420z M212,460h80v8h-80V460z M292,396v8h-80v-8 H292z M212,380h8v8h-8V380z M180,444c4.4,0,8,3.6,8,8c0,2.1-0.8,4.2-2.3,5.7s-3.5,2.3-5.7,2.3h-55c2.6-5,4.6-10.3,5.7-16H180z M108,384C108,384,108,384,108,384c0-19.9,16.1-36,36-36s36,16.1,36,36s-16.1,36-36,36c-4.8,0-9.5-0.9-13.8-2.8 C126.7,403.8,118.8,392.1,108,384z M144,332c28.7,0,52,23.3,52,52s-23.3,52-52,52c-4.1,0-8.1-0.5-12.1-1.4c0-0.9,0.1-1.7,0.1-2.6 c0-1.9-0.1-3.8-0.3-5.7c4,1.2,8.1,1.7,12.3,1.7c24.3,0,44-19.7,44-44s-19.7-44-44-44c-22.6,0-41.3,17.1-43.7,39.1 c-2.4-1.3-5-2.5-7.6-3.4C96.7,350.6,118.2,332,144,332z M20,432c0-28.7,23.3-52,52-52s52,23.3,52,52s-23.3,52-52,52S20,460.7,20,432 z M101.9,484c7.1-4.1,13.2-9.5,18.1-16h60c4.4,0,8,3.6,8,8c0,2.1-0.8,4.2-2.3,5.7s-3.5,2.3-5.7,2.3H101.9z M212,476h80v8h-80V476z M300,444h8v40h-8V444z M396,484v-40h8v40H396z M412,484v-8h80v8H412z"/></g></svg>